<svg width="25" height="25" viewBox="0 0 25 25" fill="none" xmlns="http://www.w3.org/2000/svg">
<path d="M16.4062 21.875C16.4062 22.0822 16.3239 22.2809 16.1774 22.4274C16.0309 22.5739 15.8322 22.6562 15.625 22.6562H9.37497C9.16777 22.6562 8.96905 22.5739 8.82254 22.4274C8.67603 22.2809 8.59372 22.0822 8.59372 21.875C8.59372 21.6678 8.67603 21.4691 8.82254 21.3226C8.96905 21.1761 9.16777 21.0938 9.37497 21.0938H15.625C15.8322 21.0938 16.0309 21.1761 16.1774 21.3226C16.3239 21.4691 16.4062 21.6678 16.4062 21.875ZM21.665 18.75C21.5295 18.9888 21.3327 19.1871 21.0949 19.3244C20.8571 19.4617 20.587 19.5331 20.3125 19.5312H4.68747C4.4128 19.5309 4.14308 19.4581 3.90549 19.3203C3.66791 19.1824 3.47085 18.9844 3.3342 18.7462C3.19754 18.5079 3.1261 18.2378 3.12709 17.9631C3.12807 17.6885 3.20145 17.4189 3.33981 17.1816C3.8818 16.248 4.68747 13.6074 4.68747 10.1562C4.68747 8.08425 5.51057 6.09711 6.9757 4.63198C8.44082 3.16685 10.428 2.34375 12.5 2.34375C14.572 2.34375 16.5591 3.16685 18.0242 4.63198C19.4894 6.09711 20.3125 8.08425 20.3125 10.1562C20.3125 13.6064 21.1191 16.248 21.6611 17.1816C21.8008 17.4192 21.8748 17.6898 21.8753 17.9654C21.8758 18.2411 21.8029 18.5119 21.664 18.75H21.665ZM20.3125 17.9688C19.5576 16.6729 18.75 13.6768 18.75 10.1562C18.75 8.49865 18.0915 6.90894 16.9194 5.73683C15.7473 4.56473 14.1576 3.90625 12.5 3.90625C10.8424 3.90625 9.25265 4.56473 8.08055 5.73683C6.90845 6.90894 6.24997 8.49865 6.24997 10.1562C6.24997 13.6777 5.44137 16.6738 4.68747 17.9688H20.3125Z" fill="#161518"/>
</svg>
