<svg width="20" height="21" viewBox="0 0 20 21" fill="none" xmlns="http://www.w3.org/2000/svg">
<path d="M13.3767 1.98914L14.1817 2.20664C15.1662 2.47303 16.0636 2.99288 16.7845 3.71433C17.5053 4.43578 18.0245 5.33362 18.2901 6.3183L18.5067 7.12247L16.8984 7.55664L16.6809 6.75247C16.4911 6.04911 16.1202 5.40781 15.6052 4.89253C15.0902 4.37725 14.4491 4.00599 13.7459 3.8158L12.9417 3.59747L13.3767 1.98914ZM0.833394 2.16664H7.98339L9.22256 7.74164L7.67256 9.29164C8.58351 10.7103 9.7895 11.916 11.2084 12.8266L12.7584 11.2775L18.3334 12.5166V19.6666H17.5001C14.2921 19.6716 11.1514 18.7465 8.45839 17.0033C6.47278 15.7182 4.7818 14.0272 3.49673 12.0416C1.75356 9.34858 0.828449 6.20795 0.833394 2.99997V2.16664ZM2.52256 3.8333C2.66275 6.43327 3.48129 8.95122 4.89673 11.1366C6.0537 12.9241 7.57596 14.4463 9.36339 15.6033C11.5488 17.0188 14.0667 17.8373 16.6667 17.9775V13.8533L13.2892 13.1033L11.4776 14.9158L10.9251 14.6016C8.82733 13.4094 7.09061 11.6727 5.89839 9.57497L5.58423 9.02247L7.39673 7.2108L6.64673 3.8333H2.52256ZM12.6151 4.80414L13.4201 5.02164C13.9123 5.15483 14.361 5.41476 14.7214 5.77548C15.0819 6.13621 15.3414 6.58513 15.4742 7.07747L15.6909 7.88164L14.0826 8.3158L13.8651 7.51164C13.8081 7.30062 13.6967 7.10824 13.5422 6.95368C13.3876 6.79912 13.1952 6.68779 12.9842 6.6308L12.1801 6.4133L12.6151 4.80414Z" fill="#565560"/>
</svg>
