<svg width="104" height="85" viewBox="0 0 104 85" fill="none" xmlns="http://www.w3.org/2000/svg">
<path fill-rule="evenodd" clip-rule="evenodd" d="M90.9454 0.731032C92.0993 0.0509353 93.4775 -0.16541 94.7908 0.127385C96.1042 0.42018 97.2506 1.19936 97.9896 2.30145L103.148 10.0006C103.821 11.0068 104.11 12.2138 103.962 13.4082C103.814 14.6025 103.24 15.7072 102.34 16.527L102.324 16.5474L102.252 16.6137L101.955 16.8839L100.782 17.9801C94.2955 24.1374 88.0056 30.4901 81.9214 37.0291C70.4747 49.3477 56.8813 65.47 47.7323 81.113C45.1793 85.4775 38.9427 86.4157 35.2435 82.6477L1.45553 48.2923C0.97132 47.7997 0.59324 47.217 0.343761 46.5786C0.0942812 45.9402 -0.0215052 45.2593 0.00328299 44.5763C0.0280711 43.8932 0.192928 43.2221 0.488055 42.6026C0.783182 41.9832 1.20255 41.4281 1.72124 40.9704L11.9332 31.9558C12.8306 31.1641 13.9813 30.7021 15.1884 30.6491C16.3954 30.5961 17.5838 30.9553 18.5501 31.6652L35.7906 44.3152C62.7167 18.3269 77.993 8.35368 90.9454 0.731032Z" fill="#491D6C"/>
</svg>
