<svg width="25" height="25" viewBox="0 0 25 25" fill="none" xmlns="http://www.w3.org/2000/svg">
<path d="M14.8438 9.375H10.1562C9.94905 9.375 9.75034 9.45731 9.60382 9.60382C9.45731 9.75034 9.375 9.94905 9.375 10.1562V14.8438C9.375 15.051 9.45731 15.2497 9.60382 15.3962C9.75034 15.5427 9.94905 15.625 10.1562 15.625H14.8438C15.051 15.625 15.2497 15.5427 15.3962 15.3962C15.5427 15.2497 15.625 15.051 15.625 14.8438V10.1562C15.625 9.94905 15.5427 9.75034 15.3962 9.60382C15.2497 9.45731 15.051 9.375 14.8438 9.375ZM14.0625 14.0625H10.9375V10.9375H14.0625V14.0625ZM22.6562 14.0625H21.0938V10.9375H22.6562C22.8635 10.9375 23.0622 10.8552 23.2087 10.7087C23.3552 10.5622 23.4375 10.3635 23.4375 10.1562C23.4375 9.94905 23.3552 9.75034 23.2087 9.60382C23.0622 9.45731 22.8635 9.375 22.6562 9.375H21.0938V5.46875C21.0938 5.05435 20.9291 4.65692 20.6361 4.3639C20.3431 4.07087 19.9457 3.90625 19.5312 3.90625H15.625V2.34375C15.625 2.13655 15.5427 1.93784 15.3962 1.79132C15.2497 1.64481 15.051 1.5625 14.8438 1.5625C14.6365 1.5625 14.4378 1.64481 14.2913 1.79132C14.1448 1.93784 14.0625 2.13655 14.0625 2.34375V3.90625H10.9375V2.34375C10.9375 2.13655 10.8552 1.93784 10.7087 1.79132C10.5622 1.64481 10.3635 1.5625 10.1562 1.5625C9.94905 1.5625 9.75034 1.64481 9.60382 1.79132C9.45731 1.93784 9.375 2.13655 9.375 2.34375V3.90625H5.46875C5.05435 3.90625 4.65692 4.07087 4.3639 4.3639C4.07087 4.65692 3.90625 5.05435 3.90625 5.46875V9.375H2.34375C2.13655 9.375 1.93784 9.45731 1.79132 9.60382C1.64481 9.75034 1.5625 9.94905 1.5625 10.1562C1.5625 10.3635 1.64481 10.5622 1.79132 10.7087C1.93784 10.8552 2.13655 10.9375 2.34375 10.9375H3.90625V14.0625H2.34375C2.13655 14.0625 1.93784 14.1448 1.79132 14.2913C1.64481 14.4378 1.5625 14.6365 1.5625 14.8438C1.5625 15.051 1.64481 15.2497 1.79132 15.3962C1.93784 15.5427 2.13655 15.625 2.34375 15.625H3.90625V19.5312C3.90625 19.9457 4.07087 20.3431 4.3639 20.6361C4.65692 20.9291 5.05435 21.0938 5.46875 21.0938H9.375V22.6562C9.375 22.8635 9.45731 23.0622 9.60382 23.2087C9.75034 23.3552 9.94905 23.4375 10.1562 23.4375C10.3635 23.4375 10.5622 23.3552 10.7087 23.2087C10.8552 23.0622 10.9375 22.8635 10.9375 22.6562V21.0938H14.0625V22.6562C14.0625 22.8635 14.1448 23.0622 14.2913 23.2087C14.4378 23.3552 14.6365 23.4375 14.8438 23.4375C15.051 23.4375 15.2497 23.3552 15.3962 23.2087C15.5427 23.0622 15.625 22.8635 15.625 22.6562V21.0938H19.5312C19.9457 21.0938 20.3431 20.9291 20.6361 20.6361C20.9291 20.3431 21.0938 19.9457 21.0938 19.5312V15.625H22.6562C22.8635 15.625 23.0622 15.5427 23.2087 15.3962C23.3552 15.2497 23.4375 15.051 23.4375 14.8438C23.4375 14.6365 23.3552 14.4378 23.2087 14.2913C23.0622 14.1448 22.8635 14.0625 22.6562 14.0625ZM19.5312 19.5312H5.46875V5.46875H19.5312V14.8311C19.5312 14.8311 19.5312 14.8398 19.5312 14.8438C19.5312 14.8477 19.5312 14.8525 19.5312 14.8564V19.5312Z" fill="#565560"/>
</svg>
