<svg width="25" height="25" viewBox="0 0 25 25" fill="none" xmlns="http://www.w3.org/2000/svg">
<path d="M21.708 12.0176L13.1143 1.08013C13.0411 0.987107 12.9479 0.911906 12.8415 0.860195C12.7351 0.808485 12.6183 0.781616 12.5 0.781616C12.3817 0.781616 12.2649 0.808485 12.1585 0.860195C12.0521 0.911906 11.9588 0.987107 11.8857 1.08013L3.29199 12.0176C3.18396 12.1552 3.12524 12.3251 3.12524 12.5C3.12524 12.675 3.18396 12.8449 3.29199 12.9825L11.8857 23.92C11.9588 24.013 12.0521 24.0882 12.1585 24.1399C12.2649 24.1916 12.3817 24.2185 12.5 24.2185C12.6183 24.2185 12.7351 24.1916 12.8415 24.1399C12.9479 24.0882 13.0411 24.013 13.1143 23.92L21.708 12.9825C21.816 12.8449 21.8747 12.675 21.8747 12.5C21.8747 12.3251 21.816 12.1552 21.708 12.0176ZM13.2812 3.82134L19.8652 12.2002L13.2812 15.1934V3.82134ZM11.7187 15.1934L5.13476 12.2002L11.7187 3.82134V15.1934ZM11.7187 16.9092V21.1788L6.50097 14.5381L11.7187 16.9092ZM13.2812 16.9092L18.499 14.5372L13.2812 21.1778V16.9092Z" fill="#565560"/>
</svg>
