<svg width="25" height="25" viewBox="0 0 25 25" fill="none" xmlns="http://www.w3.org/2000/svg">
<path d="M19.5313 19.9707V22.6562C19.5313 22.8635 19.449 23.0622 19.3025 23.2087C19.156 23.3552 18.9572 23.4375 18.75 23.4375C18.5428 23.4375 18.3441 23.3552 18.1976 23.2087C18.0511 23.0622 17.9688 22.8635 17.9688 22.6562V19.9707C17.9726 18.8091 17.651 17.6696 17.0403 16.6815C16.4296 15.6933 15.5544 14.896 14.5137 14.3799L9.78715 12.0176C8.4864 11.3724 7.3924 10.3758 6.62915 9.14066C5.86589 7.90551 5.46392 6.48124 5.46879 5.0293V2.34375C5.46879 2.13655 5.5511 1.93784 5.69762 1.79132C5.84413 1.64481 6.04284 1.5625 6.25004 1.5625C6.45724 1.5625 6.65596 1.64481 6.80247 1.79132C6.94898 1.93784 7.03129 2.13655 7.03129 2.34375V5.0293C7.02746 6.19091 7.34911 7.33037 7.95978 8.31852C8.57045 9.30667 9.44571 10.104 10.4864 10.6201L15.2129 12.9824C16.5137 13.6276 17.6077 14.6242 18.3709 15.8593C19.1342 17.0945 19.5362 18.5188 19.5313 19.9707ZM15.625 19.5312H7.0479C7.08548 18.999 7.1915 18.4739 7.36333 17.9688H14.4639C14.6711 17.9688 14.8698 17.8864 15.0163 17.7399C15.1629 17.5934 15.2452 17.3947 15.2452 17.1875C15.2452 16.9803 15.1629 16.7816 15.0163 16.6351C14.8698 16.4886 14.6711 16.4062 14.4639 16.4062H8.15043C8.54248 15.8395 9.02595 15.3419 9.5811 14.9336C9.66394 14.8729 9.73402 14.7964 9.78732 14.7086C9.84062 14.6208 9.87611 14.5234 9.89175 14.4219C9.90739 14.3203 9.90289 14.2167 9.87849 14.117C9.85409 14.0172 9.81028 13.9232 9.74956 13.8403C9.68883 13.7575 9.61239 13.6874 9.52458 13.6341C9.43678 13.5808 9.33933 13.5453 9.23781 13.5297C9.13629 13.514 9.03269 13.5185 8.93291 13.5429C8.83313 13.5673 8.73914 13.6112 8.65629 13.6719C7.66942 14.3994 6.86694 15.3482 6.31336 16.4422C5.75977 17.5361 5.4705 18.7447 5.46879 19.9707V22.6562C5.46879 22.8635 5.5511 23.0622 5.69762 23.2087C5.84413 23.3552 6.04284 23.4375 6.25004 23.4375C6.45724 23.4375 6.65596 23.3552 6.80247 23.2087C6.94898 23.0622 7.03129 22.8635 7.03129 22.6562V21.0938H15.625C15.8322 21.0938 16.031 21.0114 16.1775 20.8649C16.324 20.7184 16.4063 20.5197 16.4063 20.3125C16.4063 20.1053 16.324 19.9066 16.1775 19.7601C16.031 19.6136 15.8322 19.5312 15.625 19.5312ZM18.75 1.5625C18.5428 1.5625 18.3441 1.64481 18.1976 1.79132C18.0511 1.93784 17.9688 2.13655 17.9688 2.34375V3.90625H9.37504C9.16784 3.90625 8.96913 3.98856 8.82262 4.13507C8.6761 4.28159 8.59379 4.4803 8.59379 4.6875C8.59379 4.8947 8.6761 5.09341 8.82262 5.23993C8.96913 5.38644 9.16784 5.46875 9.37504 5.46875H17.9522C17.9146 6.00097 17.8086 6.52613 17.6368 7.03125H10.5362C10.329 7.03125 10.1303 7.11356 9.98375 7.26007C9.83724 7.40659 9.75493 7.6053 9.75493 7.8125C9.75493 8.0197 9.83724 8.21841 9.98375 8.36493C10.1303 8.51144 10.329 8.59375 10.5362 8.59375H16.8497C16.4576 9.16048 15.9741 9.65814 15.419 10.0664C15.3363 10.1271 15.2663 10.2036 15.2131 10.2913C15.16 10.3791 15.1246 10.4764 15.109 10.5779C15.0935 10.6793 15.0981 10.7828 15.1225 10.8824C15.1469 10.9821 15.1908 11.076 15.2515 11.1587C15.3741 11.3257 15.5581 11.4372 15.763 11.4687C15.8644 11.4842 15.9679 11.4796 16.0676 11.4552C16.1672 11.4307 16.2611 11.3869 16.3438 11.3262C17.3304 10.5989 18.1327 9.65034 18.6863 8.55675C19.2399 7.46317 19.5293 6.25501 19.5313 5.0293V2.34375C19.5313 2.13655 19.449 1.93784 19.3025 1.79132C19.156 1.64481 18.9572 1.5625 18.75 1.5625Z" fill="#565560"/>
</svg>
