<svg width="25" height="25" viewBox="0 0 25 25" fill="none" xmlns="http://www.w3.org/2000/svg">
<path d="M12.5 7.81248C11.5729 7.81248 10.6666 8.0874 9.89575 8.60247C9.12489 9.11754 8.52408 9.84963 8.1693 10.7062C7.81451 11.5627 7.72168 12.5052 7.90255 13.4145C8.08342 14.3238 8.52986 15.159 9.18542 15.8145C9.84098 16.4701 10.6762 16.9165 11.5855 17.0974C12.4948 17.2783 13.4373 17.1855 14.2938 16.8307C15.1503 16.4759 15.8824 15.8751 16.3975 15.1042C16.9126 14.3334 17.1875 13.4271 17.1875 12.5C17.1862 11.2572 16.6919 10.0656 15.8131 9.18685C14.9343 8.30805 13.7428 7.81378 12.5 7.81248ZM12.5 15.625C11.8819 15.625 11.2777 15.4417 10.7638 15.0983C10.2499 14.7549 9.84938 14.2669 9.61286 13.6959C9.37634 13.1248 9.31445 12.4965 9.43503 11.8903C9.55561 11.2841 9.85324 10.7273 10.2903 10.2903C10.7273 9.85324 11.2841 9.55561 11.8903 9.43503C12.4965 9.31445 13.1248 9.37634 13.6959 9.61286C14.2669 9.84938 14.7549 10.2499 15.0983 10.7638C15.4417 11.2777 15.625 11.8819 15.625 12.5C15.625 13.3288 15.2957 14.1236 14.7097 14.7097C14.1236 15.2957 13.3288 15.625 12.5 15.625ZM21.0937 12.7109C21.0976 12.5703 21.0976 12.4297 21.0937 12.289L22.5508 10.4687C22.6272 10.3732 22.68 10.261 22.7051 10.1412C22.7303 10.0215 22.7269 9.89749 22.6953 9.77928C22.4564 8.88143 22.0991 8.01937 21.6328 7.2158C21.5717 7.11064 21.487 7.02119 21.3852 6.95456C21.2835 6.88794 21.1677 6.84597 21.0469 6.83201L18.7305 6.5742C18.6341 6.47264 18.5364 6.37498 18.4375 6.28123L18.164 3.95897C18.15 3.83808 18.1079 3.72215 18.0411 3.62042C17.9743 3.51869 17.8846 3.43398 17.7793 3.37303C16.9754 2.90755 16.1134 2.5506 15.2158 2.31151C15.0975 2.28006 14.9735 2.27684 14.8537 2.30212C14.734 2.32739 14.6218 2.38045 14.5264 2.45701L12.7109 3.90623C12.5703 3.90623 12.4297 3.90623 12.289 3.90623L10.4687 2.45213C10.3732 2.37573 10.261 2.32285 10.1412 2.29775C10.0215 2.27264 9.89749 2.27602 9.77928 2.3076C8.88157 2.54688 8.01957 2.90417 7.2158 3.3701C7.11064 3.43116 7.02119 3.51593 6.95456 3.61765C6.88794 3.71937 6.84597 3.83524 6.83201 3.95604L6.5742 6.27635C6.47264 6.37336 6.37498 6.47101 6.28123 6.56932L3.95897 6.83592C3.83808 6.84999 3.72215 6.8921 3.62042 6.9589C3.51869 7.0257 3.43398 7.11535 3.37303 7.22069C2.90755 8.02456 2.5506 8.88655 2.31151 9.78416C2.28006 9.90245 2.27684 10.0265 2.30212 10.1462C2.32739 10.266 2.38045 10.3781 2.45701 10.4736L3.90623 12.289C3.90623 12.4297 3.90623 12.5703 3.90623 12.7109L2.45213 14.5312C2.37573 14.6268 2.32285 14.739 2.29775 14.8587C2.27264 14.9785 2.27602 15.1025 2.3076 15.2207C2.54646 16.1185 2.90376 16.9806 3.3701 17.7842C3.43116 17.8893 3.51593 17.9788 3.61765 18.0454C3.71937 18.112 3.83524 18.154 3.95604 18.168L6.27244 18.4258C6.36945 18.5273 6.46711 18.625 6.56541 18.7187L6.83592 21.041C6.84999 21.1619 6.8921 21.2778 6.9589 21.3795C7.0257 21.4813 7.11535 21.566 7.22069 21.6269C8.02456 22.0924 8.88655 22.4494 9.78416 22.6885C9.90245 22.7199 10.0265 22.7231 10.1462 22.6978C10.266 22.6726 10.3781 22.6195 10.4736 22.5429L12.289 21.0937C12.4297 21.0976 12.5703 21.0976 12.7109 21.0937L14.5312 22.5508C14.6268 22.6272 14.739 22.68 14.8587 22.7051C14.9785 22.7303 15.1025 22.7269 15.2207 22.6953C16.1185 22.4564 16.9806 22.0991 17.7842 21.6328C17.8893 21.5717 17.9788 21.487 18.0454 21.3852C18.112 21.2835 18.154 21.1677 18.168 21.0469L18.4258 18.7305C18.5273 18.6341 18.625 18.5364 18.7187 18.4375L21.041 18.164C21.1619 18.15 21.2778 18.1079 21.3795 18.0411C21.4813 17.9743 21.566 17.8846 21.6269 17.7793C22.0924 16.9754 22.4494 16.1134 22.6885 15.2158C22.7199 15.0975 22.7231 14.9735 22.6978 14.8537C22.6726 14.734 22.6195 14.6218 22.5429 14.5264L21.0937 12.7109ZM19.5215 12.0762C19.5381 12.3585 19.5381 12.6415 19.5215 12.9238C19.5098 13.1171 19.5704 13.3078 19.6914 13.459L21.0771 15.1904C20.9181 15.6958 20.7145 16.186 20.4687 16.6553L18.2617 16.9053C18.0695 16.9266 17.892 17.0185 17.7637 17.1631C17.5757 17.3745 17.3755 17.5747 17.164 17.7627C17.0194 17.8911 16.9276 18.0685 16.9062 18.2607L16.6611 20.4658C16.1919 20.7117 15.7017 20.9153 15.1963 21.0742L13.4638 19.6885C13.3252 19.5777 13.153 19.5174 12.9756 19.5176H12.9287C12.6464 19.5342 12.3633 19.5342 12.081 19.5176C11.8878 19.5059 11.697 19.5665 11.5459 19.6875L9.80955 21.0742C9.30421 20.9152 8.81401 20.7116 8.34471 20.4658L8.09471 18.2617C8.07337 18.0695 7.98151 17.892 7.8369 17.7637C7.62548 17.5757 7.42527 17.3755 7.23729 17.164C7.1089 17.0194 6.93144 16.9276 6.73924 16.9062L4.53416 16.6601C4.28826 16.1909 4.08465 15.7007 3.92576 15.1953L5.31151 13.4629C5.43251 13.3117 5.49306 13.121 5.48143 12.9277C5.46483 12.6454 5.46483 12.3624 5.48143 12.0801C5.49306 11.8868 5.43251 11.6961 5.31151 11.5449L3.92576 9.80955C4.08477 9.30421 4.28837 8.81401 4.53416 8.34471L6.73826 8.09471C6.93047 8.07337 7.10793 7.98151 7.23631 7.8369C7.42429 7.62548 7.6245 7.42527 7.83592 7.23729C7.98111 7.10882 8.07335 6.93095 8.09471 6.73826L8.33983 4.53416C8.80907 4.28826 9.29929 4.08465 9.80467 3.92576L11.5371 5.31151C11.6883 5.43251 11.879 5.49306 12.0722 5.48143C12.3546 5.46483 12.6376 5.46483 12.9199 5.48143C13.1132 5.49306 13.3039 5.43251 13.4551 5.31151L15.1904 3.92576C15.6958 4.08477 16.186 4.28837 16.6553 4.53416L16.9053 6.73826C16.9266 6.93047 17.0185 7.10793 17.1631 7.23631C17.3745 7.42429 17.5747 7.6245 17.7627 7.83592C17.8911 7.98054 18.0685 8.0724 18.2607 8.09373L20.4658 8.33885C20.7117 8.80809 20.9153 9.29831 21.0742 9.80369L19.6885 11.5361C19.5663 11.6886 19.5057 11.8812 19.5185 12.0762H19.5215Z" fill="#565560"/>
</svg>
