<svg width="20" height="21" viewBox="0 0 20 21" fill="none" xmlns="http://www.w3.org/2000/svg">
<path d="M6.66663 5.5H16.6666V7.44444H6.66663V5.5ZM6.66663 9.66667H16.6666V11.6111H6.66663V9.66667ZM6.66663 13.8333H16.6666V15.7778H6.66663V13.8333Z" fill="#D0CFCE"/>
<path d="M3.33337 13.8333H5.27782V15.7778H3.33337V13.8333ZM3.33337 9.66667H5.27782V11.6111H3.33337V9.66667ZM3.33337 5.5H5.27782V7.44444H3.33337V5.5Z" fill="#9B9B9A"/>
<path d="M16.3889 7.44444H6.94449C6.87081 7.44444 6.80016 7.41518 6.74807 7.36309C6.69597 7.31099 6.66671 7.24034 6.66671 7.16667V5.77778C6.66671 5.70411 6.69597 5.63345 6.74807 5.58136C6.80016 5.52927 6.87081 5.5 6.94449 5.5H16.3889C16.4626 5.5 16.5333 5.52927 16.5853 5.58136C16.6374 5.63345 16.6667 5.70411 16.6667 5.77778V7.16667C16.6667 7.24034 16.6374 7.31099 16.5853 7.36309C16.5333 7.41518 16.4626 7.44444 16.3889 7.44444ZM16.3889 11.6111H6.94449C6.87081 11.6111 6.80016 11.5818 6.74807 11.5298C6.69597 11.4777 6.66671 11.407 6.66671 11.3333V9.94444C6.66671 9.87077 6.69597 9.80012 6.74807 9.74803C6.80016 9.69593 6.87081 9.66667 6.94449 9.66667H16.3889C16.4626 9.66667 16.5333 9.69593 16.5853 9.74803C16.6374 9.80012 16.6667 9.87077 16.6667 9.94444V11.3333C16.6667 11.407 16.6374 11.4777 16.5853 11.5298C16.5333 11.5818 16.4626 11.6111 16.3889 11.6111ZM16.3889 15.7778H6.94449C6.87081 15.7778 6.80016 15.7485 6.74807 15.6964C6.69597 15.6443 6.66671 15.5737 6.66671 15.5V14.1111C6.66671 14.0374 6.69597 13.9668 6.74807 13.9147C6.80016 13.8626 6.87081 13.8333 6.94449 13.8333H16.3889C16.4626 13.8333 16.5333 13.8626 16.5853 13.9147C16.6374 13.9668 16.6667 14.0374 16.6667 14.1111V15.5C16.6667 15.5737 16.6374 15.6443 16.5853 15.6964C16.5333 15.7485 16.4626 15.7778 16.3889 15.7778ZM5.00004 7.44444H3.61115C3.53748 7.44444 3.46683 7.41518 3.41473 7.36309C3.36264 7.31099 3.33337 7.24034 3.33337 7.16667V5.77778C3.33337 5.70411 3.36264 5.63345 3.41473 5.58136C3.46683 5.52927 3.53748 5.5 3.61115 5.5H5.00004C5.07371 5.5 5.14437 5.52927 5.19646 5.58136C5.24855 5.63345 5.27782 5.70411 5.27782 5.77778V7.16667C5.27782 7.24034 5.24855 7.31099 5.19646 7.36309C5.14437 7.41518 5.07371 7.44444 5.00004 7.44444ZM5.00004 11.6111H3.61115C3.53748 11.6111 3.46683 11.5818 3.41473 11.5298C3.36264 11.4777 3.33337 11.407 3.33337 11.3333V9.94444C3.33337 9.87077 3.36264 9.80012 3.41473 9.74803C3.46683 9.69593 3.53748 9.66667 3.61115 9.66667H5.00004C5.07371 9.66667 5.14437 9.69593 5.19646 9.74803C5.24855 9.80012 5.27782 9.87077 5.27782 9.94444V11.3333C5.27782 11.407 5.24855 11.4777 5.19646 11.5298C5.14437 11.5818 5.07371 11.6111 5.00004 11.6111ZM5.00004 15.7778H3.61115C3.53748 15.7778 3.46683 15.7485 3.41473 15.6964C3.36264 15.6443 3.33337 15.5737 3.33337 15.5V14.1111C3.33337 14.0374 3.36264 13.9668 3.41473 13.9147C3.46683 13.8626 3.53748 13.8333 3.61115 13.8333H5.00004C5.07371 13.8333 5.14437 13.8626 5.19646 13.9147C5.24855 13.9668 5.27782 14.0374 5.27782 14.1111V15.5C5.27782 15.5737 5.24855 15.6443 5.19646 15.6964C5.14437 15.7485 5.07371 15.7778 5.00004 15.7778Z" stroke="#565560" stroke-width="0.555556" stroke-miterlimit="10" stroke-linecap="round" stroke-linejoin="round"/>
</svg>
